# xmcd
#
# Track frame offsets:
# 150
# 24679
# 57986
# 84406
# 119963
# 146800
# 165817
# 189944
# 211231
# 237160
# 254245
# 275812
# 300831
#
# Disc length: 4336 seconds
#
#
# Revision: 3
# Processed by: cddbd v1.4PL0 Copyright (c) Steve Scherf et al.
# Submitted via: FreeRIP 2.00 
#
DISCID=ba10ee0d
DTITLE=Eric Clapton - Pilgrim
DYEAR=1900
DGENRE=
TTITLE0=My Father's Eyes
TTITLE1=River of Tears
TTITLE2=Pilgrim
TTITLE3=Broken Hearted
TTITLE4=One Chance
TTITLE5=Circus
TTITLE6=Going Down Slow
TTITLE7=Falling Like Rain
TTITLE8=Born In Time
TTITLE9=Sick and Tired
TTITLE10=Needs His Woman
TTITLE11=She's Gone
TTITLE12=Pista 13
EXTD=
EXTT0=
EXTT1=
EXTT2=
EXTT3=
EXTT4=
EXTT5=
EXTT6=
EXTT7=
EXTT8=
EXTT9=
EXTT10=
EXTT11=
EXTT12=
PLAYORDER=
